<?xml version="1.0" encoding="UTF-8"?>
<svg id="Layer_2" data-name="Layer 2" xmlns="http://www.w3.org/2000/svg" viewBox="0 0 1250.38 1764.9">
  <defs>
    <style>
      .cls-1 {
        fill: #1771b6;
      }
    </style>
  </defs>
  <g id="Layer_1-2" data-name="Layer 1">
    <path class="cls-1" d="M294.12,118.86v118.86h189.75v-79.24h-110.51v-79.24h110.51V0h-189.75v118.86ZM521.61,77.36l.31,77.46,55.05.31,54.94.21v13.55h-110.51v71.94h189.75V82.36h-110.51v-13.55h110.51V0h-189.75l.21,77.36ZM749.73,77.67v77.67h109.47v13.55h-109.47v71.94h188.71V82.36h-109.47v-13.55h109.47V0h-188.71v77.67ZM.52,350.52c.31,1.88,25.96,288.9,57.03,637.86,31.07,348.96,56.51,634.52,56.61,634.63s114.89,32.11,255.23,71l255.12,70.9,255.75-70.9c140.65-38.99,255.85-71,255.85-71.1.1,0,25.54-285.36,56.61-634,31.07-348.64,56.72-635.67,57.03-637.86l.63-3.86H0l.52,3.34ZM1016.63,610.12c0,2.29-7.4,85.6-50.98,573.63-10.84,121.46-20.12,221.24-20.64,221.65-1.15,1.04-317.68,88.62-320.18,88.62-1.98,0-320.08-87.99-320.81-88.83-.21-.21-5.11-53.59-10.84-118.65-5.84-65.06-10.74-120.32-11.16-122.82l-.52-4.38h78.72c43.37,0,78.82.1,78.92.21,0,.21,2.5,28.15,5.63,62.14,3.02,34.09,5.73,62.03,5.94,62.24s39.31,10.95,87.06,23.77l86.64,23.46,86.85-23.46c47.85-12.93,87.16-23.67,87.37-23.77.42-.52,17.72-193.61,17.83-198.93v-3.86H274.31v-2.61c0-1.46-3.02-36.59-6.78-77.99s-6.78-75.38-6.78-75.59c0-.1,128.34-.21,285.15-.21h285.15v-2.61c0-1.36,3.02-36.8,6.78-78.51,3.75-41.81,6.78-76.84,6.78-77.78,0-1.56-23.04-1.67-298.91-1.88l-299.02-.31-6.36-70.9c-3.54-38.99-6.78-74.02-7.19-77.99l-.63-6.99h784.13v2.29Z"/>
  </g>
</svg>