<?xml version="1.0" encoding="UTF-8"?>
<svg id="Layer_2" data-name="Layer 2" xmlns="http://www.w3.org/2000/svg" viewBox="0 0 1070.26 1070.26">
  <defs>
    <style>
      .cls-1 {
        fill: #ffd02f;
      }

      .cls-2 {
        fill: #050038;
      }
    </style>
  </defs>
  <g id="Layer_1-2" data-name="Layer 1">
    <path class="cls-1" d="M231.85,0h606.55C966.37,0,1070.26,103.89,1070.26,231.85v606.55c0,127.96-103.89,231.85-231.85,231.85H231.85c-127.96,0-231.85-103.89-231.85-231.85V231.85C0,103.89,103.89,0,231.85,0h0Z"/>
    <path class="cls-2" d="M743.7,133.66h-117.51l97.87,171.99-215.38-171.99h-117.51l107.69,210.31-225.2-210.31h-117.51l117.51,267.64-117.51,535.29h117.51l225.2-573.61-107.69,573.61h117.51l215.38-611.62-97.87,611.62h117.51l215.38-669.27-215.38-133.66Z"/>
  </g>
</svg>